<?xml version="1.0" encoding="UTF-8"?>
<svg version="1.1" xmlns="http://www.w3.org/2000/svg" width="30" height="30">
<path d="M0 0 C-0.57575664 3.35250701 -1.59306263 4.93818629 -4.0625 7.25 C-4.88427734 8.03117188 -4.88427734 8.03117188 -5.72265625 8.828125 C-6.14417969 9.21484375 -6.56570312 9.6015625 -7 10 C-5.82633684 12.88080957 -4.64907259 14.34257199 -2.375 16.5625 C0 19 0 19 0 22 C-3.74580148 21.4250237 -5.62517806 19.86362938 -8.3125 17.25 C-9.38951172 16.23679687 -9.38951172 16.23679687 -10.48828125 15.203125 C-12 13 -12 13 -11.97265625 10.50390625 C-10.81524087 7.5243751 -9.41138836 5.91107549 -7.125 3.6875 C-6.07699219 2.64142578 -6.07699219 2.64142578 -5.0078125 1.57421875 C-3 0 -3 0 0 0 Z " fill="#FFFFFF" transform="translate(21,4)"/>
</svg>
