<svg width="20" height="20" viewBox="0 0 24 27" fill="none" xmlns="http://www.w3.org/2000/svg"><g clip-path="url(#clip0_5203_25381)"><path fill-rule="evenodd" clip-rule="evenodd" d="M12.3223 0.649902C11.4888 0.649902 10.9773 1.25909 10.6448 1.7839C10.3036 2.3224 9.95147 3.09813 9.5336 4.01878C9.37134 4.37623 9.21389 4.73775 9.05619 5.09985C8.68921 5.94248 8.32087 6.78824 7.88732 7.59316C7.55653 8.20731 6.97224 8.55758 6.25996 8.30479C5.99137 8.20946 5.65339 8.05991 5.14295 7.83304C5.02015 7.77846 4.89195 7.71754 4.75964 7.65465C4.0578 7.32113 3.24039 6.93268 2.50029 7.14443C1.77261 7.35262 1.25473 7.95727 1.0847 8.66443C0.981368 9.09419 1.07146 9.53508 1.17704 9.91454C1.28619 10.3068 1.46382 10.7984 1.67805 11.3913L3.63653 16.8115C4.03584 17.9166 4.35816 18.8088 4.69207 19.5012C5.37487 20.9171 6.4515 21.7816 8.02868 21.9725C8.74733 22.0596 9.62888 22.0596 10.7005 22.0596H13.9441C15.0158 22.0596 15.8974 22.0596 16.6159 21.9725C18.1932 21.7816 19.2698 20.9171 19.9526 19.5012C20.2865 18.8088 20.6088 17.9167 21.0082 16.8114L22.9666 11.3913C23.1808 10.7984 23.3585 10.3068 23.4676 9.91454C23.5732 9.53508 23.6633 9.09419 23.56 8.66443C23.39 7.95727 22.8721 7.35262 22.1444 7.14443C21.4117 6.9348 20.5971 7.31972 19.9021 7.64813C19.7767 7.7074 19.6552 7.76482 19.5388 7.81658C19.4676 7.84818 19.3965 7.88013 19.3255 7.91211C19.0156 8.05146 18.7046 8.19125 18.3847 8.30479C17.6724 8.55758 17.0881 8.20731 16.7573 7.59316C16.3237 6.78823 15.9555 5.94245 15.5885 5.09982C15.4308 4.73771 15.2733 4.37619 15.111 4.01874C14.6932 3.09812 14.3411 2.32239 13.9999 1.7839C13.6673 1.25909 13.1558 0.649902 12.3223 0.649902ZM12.3214 14.5373C11.367 14.5373 10.5933 15.3145 10.5933 16.2732C10.5933 17.2319 11.367 18.0091 12.3214 18.0091H12.3369C13.2914 18.0091 14.0651 17.2319 14.0651 16.2732C14.0651 15.3145 13.2914 14.5373 12.3369 14.5373H12.3214Z" fill="white"></path><path fill-rule="evenodd" clip-rule="evenodd" d="M5.37891 24.9527C5.37891 24.3136 5.89706 23.7954 6.53624 23.7954H18.1095C18.7487 23.7954 19.2669 24.3136 19.2669 24.9527C19.2669 25.5919 18.7487 26.1101 18.1095 26.1101H6.53624C5.89706 26.1101 5.37891 25.5919 5.37891 24.9527Z" fill="white"></path></g><defs><clipPath id="clip0_5203_25381"><rect width="23.1456" height="25.4601" fill="white" transform="translate(0.75 0.649902)"></rect></clipPath></defs></svg>