<?xml version="1.0" encoding="UTF-8"?>
<svg version="1.1" xmlns="http://www.w3.org/2000/svg" width="48" height="48">
<path d="M0 0 C0.66209473 -0.00095673 1.32418945 -0.00191345 2.00634766 -0.00289917 C3.40852961 -0.00358076 4.8107147 -0.00172792 6.21289062 0.00244141 C8.36595713 0.00779004 10.51881502 0.0024958 12.671875 -0.00390625 C14.03125046 -0.00324546 15.3906258 -0.00196429 16.75 0 C18.61785156 0.00169189 18.61785156 0.00169189 20.5234375 0.00341797 C23.375 0.1328125 23.375 0.1328125 24.375 1.1328125 C24.87694013 4.20798999 24.93843492 7.06522236 24.375 10.1328125 C22.03187169 13.30641667 19.10157783 14.89061989 15.375 16.1328125 C13.10736426 16.27929332 10.83467634 16.3537751 8.5625 16.3828125 C6.75845703 16.42148437 6.75845703 16.42148437 4.91796875 16.4609375 C0.28716098 16.03206445 -2.79798853 14.50690936 -6.484375 11.734375 C-8.02204452 9.57531848 -7.96049894 8.13262987 -7.875 5.5078125 C-7.85953125 4.71117187 -7.8440625 3.91453125 -7.828125 3.09375 C-7.3720779 -1.30885851 -3.67448403 0.00332834 0 0 Z " fill="#FFFFFF" transform="translate(15.625,27.8671875)"/>
<path d="M0 0 C3.125 1.875 3.125 1.875 5 5 C5.98876625 10.02622846 5.7769173 13.70513784 3.125 18.125 C-1.29486216 20.7769173 -4.97377154 20.98876625 -10 20 C-13.125 18.125 -13.125 18.125 -15 15 C-15.98876625 9.97377154 -15.7769173 6.29486216 -13.125 1.875 C-8.70513784 -0.7769173 -5.02622846 -0.98876625 0 0 Z " fill="#FFFFFF" transform="translate(29,4)"/>
</svg>
