<svg width="22" height="22" viewBox="0 0 22 22" fill="#FAFAFA" xmlns="http://www.w3.org/2000/svg"><path d="M11.2795 18.0482C9.31926 18.0482 7.65893 17.368 6.29848 16.0075C4.93804 14.6471 4.25781 12.9868 4.25781 11.0265C4.25781 9.06633 4.93804 7.406 6.29848 6.04556C7.65893 4.68511 9.31926 4.00489 11.2795 4.00489C12.2888 4.00489 13.2543 4.21319 14.1759 4.62981C15.0975 5.04643 15.8874 5.64269 16.5457 6.41858V4.88259C16.5457 4.63391 16.63 4.42531 16.7985 4.25679C16.967 4.08827 17.1753 4.0043 17.4234 4.00489C17.6721 4.00489 17.8807 4.08915 18.0492 4.25767C18.2177 4.42619 18.3017 4.63449 18.3011 4.88259V9.27113C18.3011 9.51981 18.2169 9.72842 18.0484 9.89694C17.8798 10.0655 17.6715 10.1494 17.4234 10.1488H13.0349C12.7862 10.1488 12.5776 10.0646 12.4091 9.89606C12.2406 9.72754 12.1566 9.51923 12.1572 9.27113C12.1572 9.02245 12.2414 8.81384 12.41 8.64532C12.5785 8.4768 12.7868 8.39284 13.0349 8.39342H15.8436C15.3754 7.57423 14.7353 6.93058 13.9231 6.46247C13.111 5.99436 12.2297 5.7603 11.2795 5.7603C9.81663 5.7603 8.57321 6.2723 7.54922 7.29629C6.52522 8.32028 6.01323 9.5637 6.01323 11.0265C6.01323 12.4894 6.52522 13.7328 7.54922 14.7568C8.57321 15.7808 9.81663 16.2928 11.2795 16.2928C12.2742 16.2928 13.185 16.0403 14.0118 15.5353C14.8386 15.0304 15.4784 14.3539 15.9313 13.5061C16.0483 13.3013 16.2131 13.1588 16.4255 13.0786C16.6379 12.9985 16.8535 12.9947 17.0723 13.0672C17.3064 13.1404 17.4746 13.294 17.577 13.528C17.6794 13.7621 17.6721 13.9815 17.5551 14.1863C16.9553 15.3566 16.0995 16.2928 14.9878 16.995C13.876 17.6971 12.6399 18.0482 11.2795 18.0482Z"></path></svg>