<?xml version="1.0" encoding="UTF-8"?>
<svg version="1.1" xmlns="http://www.w3.org/2000/svg" width="50" height="50">
<path d="M0 0 C3.90432869 1.95216435 6.03839944 3.87386607 9 7 C8.34 8.32 7.68 9.64 7 11 C6.01 11 5.02 11 4 11 C3.99383667 11.86951294 3.99383667 11.86951294 3.98754883 12.7565918 C3.95450723 15.40124109 3.88385736 18.04361839 3.8125 20.6875 C3.80669922 21.59951172 3.80089844 22.51152344 3.79492188 23.45117188 C3.65098776 27.8491588 3.40736359 30.37328678 0.96875 34.125 C-2.96794957 36.61133657 -5.76721602 36.57652454 -10.3125 36.3125 C-11.05306641 36.28994141 -11.79363281 36.26738281 -12.55664062 36.24414062 C-14.37197357 36.1855815 -16.18625681 36.09590886 -18 36 C-18 34.68 -18 33.36 -18 32 C-16.87851562 31.92652344 -16.87851562 31.92652344 -15.734375 31.8515625 C-14.74953125 31.77679688 -13.7646875 31.70203125 -12.75 31.625 C-11.77546875 31.55539063 -10.8009375 31.48578125 -9.796875 31.4140625 C-7.05603469 31.00829564 -5.28941334 30.54377872 -3 29 C-1.7937748 25.38132441 -1.89183082 22.07493749 -1.9375 18.3125 C-1.94201172 17.61060547 -1.94652344 16.90871094 -1.95117188 16.18554688 C-1.96293073 14.45699462 -1.98086546 12.72848635 -2 11 C-2.99 11 -3.98 11 -5 11 C-5.66 9.68 -6.32 8.36 -7 7 C-4.69 4.69 -2.38 2.38 0 0 Z " fill="#FFFFFF" transform="translate(37,10)"/>
<path d="M0 0 C0.74056641 0.02255859 1.48113281 0.04511719 2.24414062 0.06835938 C4.05947357 0.1269185 5.87375681 0.21659114 7.6875 0.3125 C7.6875 1.6325 7.6875 2.9525 7.6875 4.3125 C6.93984375 4.36148437 6.1921875 4.41046875 5.421875 4.4609375 C4.43703125 4.53570313 3.4521875 4.61046875 2.4375 4.6875 C1.46296875 4.75710937 0.4884375 4.82671875 -0.515625 4.8984375 C-3.25646531 5.30420436 -5.02308666 5.76872128 -7.3125 7.3125 C-8.5187252 10.93117559 -8.42066918 14.23756251 -8.375 18 C-8.37048828 18.70189453 -8.36597656 19.40378906 -8.36132812 20.12695312 C-8.34956927 21.85550538 -8.33163454 23.58401365 -8.3125 25.3125 C-7.3225 25.3125 -6.3325 25.3125 -5.3125 25.3125 C-4.6525 26.6325 -3.9925 27.9525 -3.3125 29.3125 C-6.7775 32.7775 -6.7775 32.7775 -10.3125 36.3125 C-14.21682869 34.36033565 -16.35089944 32.43863393 -19.3125 29.3125 C-18.6525 27.9925 -17.9925 26.6725 -17.3125 25.3125 C-16.3225 25.3125 -15.3325 25.3125 -14.3125 25.3125 C-14.30839111 24.73282471 -14.30428223 24.15314941 -14.30004883 23.5559082 C-14.26700723 20.91125891 -14.19635736 18.26888161 -14.125 15.625 C-14.11919922 14.71298828 -14.11339844 13.80097656 -14.10742188 12.86132812 C-13.96348776 8.4633412 -13.71986359 5.93921322 -11.28125 2.1875 C-7.34455043 -0.29883657 -4.54528398 -0.26402454 0 0 Z " fill="#FFFFFF" transform="translate(23.3125,3.6875)"/>
</svg>
