<?xml version="1.0" encoding="UTF-8"?>
<svg version="1.1" xmlns="http://www.w3.org/2000/svg" width="50" height="50">
<path d="M0 0 C1.546875 0.99 1.546875 0.99 3.125 2 C3.455 0.68 3.785 -0.64 4.125 -2 C5.445 -2 6.765 -2 8.125 -2 C8.125 2.29 8.125 6.58 8.125 11 C3.835 11 -0.455 11 -4.875 11 C-4.875 9.68 -4.875 8.36 -4.875 7 C-3.885 6.67 -2.895 6.34 -1.875 6 C-6.87235363 3.01115213 -12.23227959 3.38731856 -17.875 4 C-22.32683951 6.14642262 -25.28330122 8.79966059 -27.875 13 C-29.06795737 16.624952 -30.01572748 20.28299537 -30.875 24 C-32.195 24 -33.515 24 -34.875 24 C-35.38530068 17.08259078 -35.06827048 11.71363756 -30.875 6 C-22.90341428 -2.5005061 -10.80215803 -5.4493892 0 0 Z " fill="#FFFFFF" transform="translate(36.875,4)"/>
<path d="M0 0 C4.75 0.875 4.75 0.875 7 2 C6.67 3.65 6.34 5.3 6 7 C1.25 6.25 1.25 6.25 -1 4 C-0.625 1.875 -0.625 1.875 0 0 Z " fill="#FFFFFF" transform="translate(12,40)"/>
<path d="M0 0 C1.875 0.3125 1.875 0.3125 4 1 C6 4 6 4 6 8 C3.625 7.6875 3.625 7.6875 1 7 C-1 4 -1 4 -0.625 1.8125 C-0.41875 1.214375 -0.2125 0.61625 0 0 Z " fill="#FFFFFF" transform="translate(4,31)"/>
<path d="M0 0 C0.5625 1.9375 0.5625 1.9375 1 4 C0 5 0 5 -3.0625 5.0625 C-4.031875 5.041875 -5.00125 5.02125 -6 5 C-6.33 3.68 -6.66 2.36 -7 1 C-4.53721199 -0.231394 -2.7204945 -0.07159196 0 0 Z " fill="#FFFFFF" transform="translate(30,43)"/>
<path d="M0 0 C2.6875 0.3125 2.6875 0.3125 5 1 C4.67 2.32 4.34 3.64 4 5 C2.02 5.33 0.04 5.66 -2 6 C-2.33 5.01 -2.66 4.02 -3 3 C-1.8125 1.4375 -1.8125 1.4375 0 0 Z " fill="#FFFFFF" transform="translate(36,39)"/>
<path d="M0 0 C0.99 0.33 1.98 0.66 3 1 C3 2.65 3 4.3 3 6 C1.68 6.33 0.36 6.66 -1 7 C-1.625 4.625 -1.625 4.625 -2 2 C-1.34 1.34 -0.68 0.68 0 0 Z " fill="#FFFFFF" transform="translate(43,31)"/>
<path d="M0 0 C1.32 0 2.64 0 4 0 C4 1.98 4 3.96 4 6 C2.68 6 1.36 6 0 6 C-1.125 2.25 -1.125 2.25 0 0 Z " fill="#FFFFFF" transform="translate(44,23)"/>
</svg>
