<?xml version="1.0" encoding="UTF-8"?>
<svg version="1.1" xmlns="http://www.w3.org/2000/svg" width="48" height="48">
<path d="M0 0 C4.75982924 2.62772498 7.04616381 6.26349144 8.75 11.375 C9.27568426 17.57807426 8.56395993 22.28972009 4.75 27.375 C2.0625 28.75 2.0625 28.75 -0.25 29.375 C-0.58 30.035 -0.91 30.695 -1.25 31.375 C-2.57 31.375 -3.89 31.375 -5.25 31.375 C-5.25 30.055 -5.25 28.735 -5.25 27.375 C-4.5075 27.189375 -3.765 27.00375 -3 26.8125 C0.7496738 24.85244324 2.47647965 22.31472084 3.75 18.375 C4.16552084 13.60873159 3.40498319 10.35747478 0.75 6.375 C-3.1200784 3.79494773 -6.61102128 3.05135032 -11.25 3.375 C-13.47386846 4.29567024 -13.47386846 4.29567024 -15.25 5.375 C-14.9715625 6.3340625 -14.9715625 6.3340625 -14.6875 7.3125 C-14.543125 7.993125 -14.39875 8.67375 -14.25 9.375 C-15.25 10.375 -15.25 10.375 -17.31640625 10.47265625 C-20.78320312 10.42382812 -20.78320312 10.42382812 -24.25 10.375 C-24.25 7.405 -24.25 4.435 -24.25 1.375 C-22.93 1.375 -21.61 1.375 -20.25 1.375 C-18.36533915 0.73783704 -18.36533915 0.73783704 -16.5 -0.125 C-10.62600274 -2.39845449 -5.81254964 -2.57259141 0 0 Z " fill="#FFFFFF" transform="translate(32.25,8.625)"/>
<path d="M0 0 C1.98 0.495 1.98 0.495 4 1 C4 1.66 4 2.32 4 3 C5.32 3 6.64 3 8 3 C8 4.32 8 5.64 8 7 C6.68 7 5.36 7 4 7 C3.67 6.34 3.34 5.68 3 5 C0.97536745 4.34786708 0.97536745 4.34786708 -1 4 C-0.67 2.68 -0.34 1.36 0 0 Z " fill="#FFFFFF" transform="translate(13,33)"/>
<path d="M0 0 C1.32 0 2.64 0 4 0 C4 1.32 4 2.64 4 4 C2.68 4 1.36 4 0 4 C0 2.68 0 1.36 0 0 Z " fill="#FFFFFF" transform="translate(22,37)"/>
</svg>
