<?xml version="1.0" encoding="UTF-8"?>
<svg version="1.1" xmlns="http://www.w3.org/2000/svg" width="24" height="24">
<path d="M0 0 C6.6 0 13.2 0 20 0 C20 5.28 20 10.56 20 16 C13.4 16 6.8 16 0 16 C0 10.72 0 5.44 0 0 Z M1 2 C0.92794489 3.68608966 0.91613932 5.37500659 0.9375 7.0625 C0.94652344 7.98160156 0.95554687 8.90070312 0.96484375 9.84765625 C0.97644531 10.55792969 0.98804688 11.26820312 1 12 C1.92039062 11.24783203 1.92039062 11.24783203 2.859375 10.48046875 C5 9 5 9 7.25 9.3125 C7.8275 9.539375 8.405 9.76625 9 10 C9.99 8.68 10.98 7.36 12 6 C15.26954202 6.56371414 16.82575883 7.49962266 19 10 C19.020625 8.700625 19.04125 7.40125 19.0625 6.0625 C19.07410156 5.33160156 19.08570312 4.60070312 19.09765625 3.84765625 C19.20561184 1.98267859 19.20561184 1.98267859 18 1 C15.3226862 0.90018786 12.67695825 0.86120125 10 0.875 C9.24976563 0.87113281 8.49953125 0.86726562 7.7265625 0.86328125 C4.06393883 0.52324459 4.06393883 0.52324459 1 2 Z M13 7 C12.608125 7.66 12.21625 8.32 11.8125 9 C11.214375 9.66 10.61625 10.32 10 11 C8.33333333 11 6.66666667 11 5 11 C4.01 12.32 3.02 13.64 2 15 C7.28 15 12.56 15 18 15 C18.34055197 11.75434142 18.34055197 11.75434142 15.5 9.3125 C14.675 8.549375 13.85 7.78625 13 7 Z " fill="#FFFFFF" transform="translate(4,2)"/>
<path d="M0 0 C0.33 0 0.66 0 1 0 C1 2.97 1 5.94 1 9 C5.95 10.32 10.9 11.64 16 13 C16.33 12.01 16.66 11.02 17 10 C17.66 10 18.32 10 19 10 C18.67 11.65 18.34 13.3 18 15 C10.87615459 15.66268329 4.69120815 13.25388064 -2 11 C-2.28571429 3.57142857 -2.28571429 3.57142857 0 0 Z " fill="#FFFFFF" transform="translate(2,9)"/>
<path d="M0 0 C1.32 0 2.64 0 4 0 C4 1.32 4 2.64 4 4 C2.68 4 1.36 4 0 4 C0 2.68 0 1.36 0 0 Z " fill="#FFFFFF" transform="translate(7,5)"/>
</svg>
