<?xml version="1.0" encoding="UTF-8"?>
<svg version="1.1" xmlns="http://www.w3.org/2000/svg" width="512" height="512">
<path d="M0 0 C7.69850776 6.11020901 14.61642891 13.37000217 21.58813477 20.29296875 C22.7422414 21.43547386 23.90082191 22.57347648 25.0637207 23.70703125 C41.59845463 39.82718087 41.59845463 39.82718087 42.1171875 52.2421875 C41.48705387 67.07133236 29.16816962 75.98157756 19.33544922 85.81845093 C18.28619618 86.87173033 17.2371504 87.92521622 16.18829155 88.97888815 C13.33222379 91.84679371 10.47311422 94.71164909 7.61342144 97.57593942 C4.51963829 100.67572671 1.4286561 103.7783052 -1.66278076 106.88043213 C-9.10981846 114.3518671 -16.56169333 121.81846807 -24.01446819 129.28417963 C-26.12061809 131.39404785 -28.22664068 133.50404305 -30.33261871 135.61408281 C-43.42753393 148.73421829 -56.52404 161.85276351 -69.62533569 174.96652794 C-72.65193609 177.99605765 -75.67852027 181.02560357 -78.70507812 184.05517578 C-79.45724397 184.80808768 -80.20940981 185.56099957 -80.98436856 186.33672698 C-93.18832284 198.55335484 -105.38194768 210.78023968 -117.57141805 223.01131754 C-130.09989678 235.582209 -142.63777657 248.14366221 -155.18486595 260.69597876 C-162.22416381 267.73868917 -169.2592415 274.785506 -176.28375244 281.84296799 C-182.26023585 287.84744236 -188.24513998 293.84335885 -194.24123335 299.82825343 C-197.2988549 302.8806881 -200.3522941 305.93701775 -203.39492035 309.00440598 C-206.18217156 311.81415113 -208.98079428 314.61203096 -211.78877425 317.40105601 C-212.80043309 318.40991533 -213.8079113 319.4229888 -214.81063485 320.44072954 C-221.24136999 326.96181729 -226.9686751 331.9163047 -236.15234375 333.56640625 C-237.07144531 333.56511719 -237.99054688 333.56382812 -238.9375 333.5625 C-239.85402344 333.58441406 -240.77054688 333.60632813 -241.71484375 333.62890625 C-250.8121034 331.88733811 -257.35894694 326.40160632 -263.7109375 319.98828125 C-264.48635895 319.22001511 -265.2617804 318.45174896 -266.06069946 317.66020203 C-267.68519197 316.04344363 -269.3034052 314.42035332 -270.91552734 312.79125977 C-273.37039488 310.31714124 -275.85324072 307.87381373 -278.33984375 305.43164062 C-279.92364861 303.84812612 -281.50573963 302.26289521 -283.0859375 300.67578125 C-284.18909805 299.59554436 -284.18909805 299.59554436 -285.31454468 298.4934845 C-291.32129752 292.34982098 -295.07423943 285.72385631 -295.5 277 C-294.74100671 265.47248618 -288.5569156 258.68897682 -280.61282349 250.87110901 C-279.53167352 249.78518795 -278.45183902 248.69795589 -277.3732022 247.6095385 C-274.41996156 244.63714086 -271.4484246 241.6836588 -268.47342849 238.73305762 C-265.26277768 235.54220357 -262.06952129 232.33402188 -258.87402344 229.12800598 C-252.61779228 222.85667479 -246.34569759 216.60144531 -240.06803836 210.35157181 C-232.75742447 203.07215228 -225.46256033 195.77703412 -218.16825913 188.48127484 C-205.15427532 175.4657902 -192.12586754 162.46484026 -179.08935547 149.47192383 C-166.43913523 136.86398554 -153.79948999 124.24556965 -141.17138672 111.61547852 C-140.39323719 110.83720912 -139.61508766 110.05893972 -138.81335784 109.2570864 C-138.03655343 108.48016092 -137.25974901 107.70323544 -136.45940506 106.90276676 C-122.07996987 92.5212623 -107.69068792 78.14964596 -93.29679314 63.78261449 C-88.20675336 58.70162386 -83.1196472 53.61770721 -78.03345108 48.53286934 C-71.83725094 42.33871523 -65.63541407 36.15026761 -59.42647018 29.96888686 C-56.25849694 26.81476662 -53.09292592 23.65833339 -49.93375778 20.49539185 C-47.04226873 17.60061663 -44.14395406 14.7128644 -41.24000786 11.8305875 C-40.19032249 10.78633946 -39.14314755 9.73956061 -38.0987481 8.69002587 C-36.67902504 7.26409631 -35.24917689 5.84826924 -33.81886482 4.43296146 C-33.02741762 3.64362754 -32.23597042 2.85429361 -31.42053998 2.04104048 C-21.95336849 -5.94183955 -10.46019611 -5.71376809 0 0 Z M-16.48695374 31.36669922 C-17.12426926 32.00623535 -17.76158478 32.64577148 -18.41821289 33.3046875 C-19.13888443 34.02543457 -19.85955597 34.74618164 -20.60206604 35.48876953 C-21.38436081 36.27622559 -22.16665558 37.06368164 -22.97265625 37.875 C-23.77029892 38.67405762 -24.56794159 39.47311523 -25.38975525 40.29638672 C-27.9496807 42.8619326 -30.50611693 45.43092482 -33.0625 48 C-34.79208986 49.73460222 -36.52190456 51.46898028 -38.25195312 53.203125 C-42.50391943 57.46614741 -46.75302219 61.73200817 -51 66 C-47.7498913 69.8488174 -44.49349707 73.63349881 -40.9140625 77.18359375 C-40.21152344 77.88291016 -39.50898438 78.58222656 -38.78515625 79.30273438 C-38.07230469 80.00720703 -37.35945313 80.71167969 -36.625 81.4375 C-35.52091797 82.53481445 -35.52091797 82.53481445 -34.39453125 83.65429688 C-32.59863926 85.43852723 -30.80044015 87.22036124 -29 89 C-24.01407125 84.82222235 -19.33295716 80.46872723 -14.75390625 75.8515625 C-13.76994118 74.86547501 -13.76994118 74.86547501 -12.76609802 73.85946655 C-10.69584732 71.78367138 -8.62912349 69.70440573 -6.5625 67.625 C-5.14932138 66.2067992 -3.73591206 64.78882824 -2.32226562 63.37109375 C1.12116065 59.91671223 4.56143099 56.4592163 8 53 C4.75455407 49.16076396 1.50321137 45.37673639 -2.05078125 41.81640625 C-3.09782227 40.76743164 -3.09782227 40.76743164 -4.16601562 39.69726562 C-4.87435547 38.99279297 -5.58269531 38.28832031 -6.3125 37.5625 C-7.04017578 36.83095703 -7.76785156 36.09941406 -8.51757812 35.34570312 C-9.20916016 34.65541016 -9.90074219 33.96511719 -10.61328125 33.25390625 C-11.24016846 32.62814697 -11.86705566 32.0023877 -12.51293945 31.35766602 C-14.50255973 29.53199179 -14.50255973 29.53199179 -16.48695374 31.36669922 Z M-75.44744647 90.19904947 C-76.01474864 90.76711109 -76.58205081 91.3351727 -77.16654396 91.9204483 C-77.82192103 92.57184328 -78.4772981 93.22323825 -79.15253508 93.89437246 C-79.87431673 94.62197979 -80.59609838 95.34958713 -81.3397522 96.09924316 C-82.48775191 97.2446796 -82.48775191 97.2446796 -83.65894353 98.41325617 C-86.24177097 100.99276939 -88.81734997 103.57940323 -91.39306641 106.16601562 C-93.23527315 108.00878606 -95.07791952 109.8511171 -96.92097473 111.69303894 C-100.89829378 115.6693074 -104.87192382 119.64923216 -108.84309769 123.63163757 C-114.58480816 129.3895766 -120.3320091 135.14200928 -126.08058111 140.89309698 C-135.40626828 150.22316542 -144.72747696 159.55769489 -154.04589844 168.89501953 C-163.09987521 177.96734395 -172.15594246 187.03757316 -181.21484375 196.10498047 C-181.77288648 196.66354864 -182.3309292 197.22211681 -182.90588231 197.7976113 C-185.70532799 200.59966697 -188.50481496 203.40168138 -191.30432248 206.20367527 C-214.54262291 229.46272164 -237.77366698 252.72900296 -261 276 C-259.3413812 279.52344644 -257.43342692 281.79901878 -254.6484375 284.546875 C-253.37226563 285.81337891 -253.37226563 285.81337891 -252.0703125 287.10546875 C-251.18085938 287.97816406 -250.29140625 288.85085938 -249.375 289.75 C-248.4778125 290.63816406 -247.580625 291.52632812 -246.65625 292.44140625 C-244.44192996 294.63216969 -242.22307565 296.81812763 -240 299 C-237.01373861 297.65760953 -234.92767052 296.17689501 -232.61859512 293.86469078 C-231.96620275 293.2162805 -231.31381037 292.56787022 -230.64164853 291.89981115 C-229.57938743 290.82881152 -229.57938743 290.82881152 -228.4956665 289.73617554 C-227.73679162 288.9790095 -226.97791673 288.22184346 -226.19604564 287.441733 C-223.64707512 284.89606429 -221.10533207 282.34329899 -218.56347656 279.79052734 C-216.74067913 277.96716595 -214.91744155 276.14424448 -213.09379578 274.32173157 C-209.16453124 270.39351587 -205.23894595 266.46165413 -201.31583405 262.52729416 C-195.64366558 256.83887346 -189.96598428 251.15598166 -184.28694114 245.47442527 C-175.07328239 236.25638898 -165.86409906 227.03389496 -156.65771484 217.80859375 C-147.71441998 208.8469416 -138.7690275 199.88739187 -129.82080078 190.93066406 C-129.26925749 190.37859533 -128.71771421 189.82652659 -128.14945748 189.2577285 C-125.38252126 186.4881822 -122.61554368 183.71867721 -119.84854555 180.94919276 C-96.89261655 157.97252944 -73.9439448 134.98863056 -51 112 C-52.64896117 108.50497652 -54.54025753 106.2021187 -57.28125 103.453125 C-58.12300781 102.60878906 -58.96476563 101.76445312 -59.83203125 100.89453125 C-61.15267578 99.58548828 -61.15267578 99.58548828 -62.5 98.25 C-63.82064453 96.91775391 -63.82064453 96.91775391 -65.16796875 95.55859375 C-66.00972656 94.71941406 -66.85148438 93.88023437 -67.71875 93.015625 C-68.87793945 91.85981934 -68.87793945 91.85981934 -70.06054688 90.68066406 C-72.31814419 88.72430707 -73.08729718 88.24392655 -75.44744647 90.19904947 Z " fill="#fff" transform="translate(312,162)"/>
<path d="M0 0 C1.54300781 -0.02513672 1.54300781 -0.02513672 3.1171875 -0.05078125 C7.97293871 0.5356926 10.27645752 2.24033441 13.2890625 6.046875 C15.23703945 9.51178719 16.37657772 12.7540188 17.5 16.5625 C22.7199873 33.11066904 33.63543527 45.39469184 48.875 53.5 C62.83768068 60.12488336 77.16947637 60.58719397 92.3125 58.5625 C97.49171979 58.00758359 101.00528345 59.13304817 105.125 62.3125 C108.70907762 65.98617956 109.39515703 68.89487316 109.5625 73.875 C109.38875404 78.14915051 109.03176312 81.00480404 106.125 84.3125 C102.28814783 87.81327753 98.41489958 89.49903168 93.5625 91.125 C76.89487786 97.11454035 63.94434597 106.73802519 55.78515625 122.73046875 C49.2159109 136.90458165 48.85465298 151.27166311 50.875 166.5625 C51.34058898 170.92397324 50.75392386 173.87997987 48.4765625 177.65234375 C45.46576203 181.35058133 42.36054967 182.97238468 37.66015625 183.6875 C31.99967884 183.95988388 28.4561006 183.23111483 24.125 179.3125 C21.0724734 175.72129224 19.69610203 172.18102929 18.3125 167.75 C13.04054518 151.17217333 3.64457252 139.13814264 -11.640625 130.8046875 C-14.35034544 129.51176375 -17.06928304 128.37980443 -19.875 127.3125 C-20.66648437 126.9928125 -21.45796875 126.673125 -22.2734375 126.34375 C-33.65761195 122.46523 -47.14986554 123.62066755 -58.875 125.3125 C-63.561545 125.04069686 -66.92655721 123.63133733 -70.3125 120.375 C-74.0510826 115.90693787 -74.22162573 112.43054739 -74.15625 106.81640625 C-73.62365888 102.07486588 -71.06900045 99.40700042 -67.671875 96.29296875 C-64.44786969 94.01004879 -61.60113227 93.09555613 -57.8125 92 C-41.9250732 87.0162424 -29.48251894 77.43811055 -21.45800781 62.70117188 C-14.20513095 48.47171823 -13.27593253 33.58206513 -15.43359375 17.91015625 C-15.9494959 13.70532542 -15.4956777 11.21685991 -13.875 7.3125 C-9.60627779 2.3870513 -6.56175443 0.02454522 0 0 Z M11.125 66.3125 C10.83367187 66.99054688 10.54234375 67.66859375 10.2421875 68.3671875 C5.48153756 79.17595876 -0.28722472 88.26109294 -7.875 97.3125 C-5.65107431 98.79511713 -3.62333578 99.98844379 -1.25 101.16015625 C7.80645912 105.72632461 15.59332837 110.43151274 23.125 117.3125 C24.60761713 115.08857431 25.80094379 113.06083578 26.97265625 110.6875 C31.53882461 101.63104088 36.24401274 93.84417163 43.125 86.3125 C40.39123072 83.57873072 37.07828337 82.31651124 33.625 80.6875 C27.50356299 77.73095284 22.28012725 74.48710468 17.140625 69.9765625 C15.20881798 68.38169856 13.40434469 67.32896452 11.125 66.3125 Z " fill="#fff" transform="translate(387.875,14.6875)"/>
<path d="M0 0 C4.67194635 2.21302722 6.61688026 4.52073306 9 9 C9.81868762 11.37990587 10.58587195 13.77789151 11.3125 16.1875 C16.25147991 31.61712806 26.09840181 43.57649448 40 52 C49.88884288 56.97607587 59.34260241 59.36360294 70.375 59.1875 C71.61890503 59.18218262 71.61890503 59.18218262 72.88793945 59.17675781 C77.3810572 59.13285827 81.72942776 58.85480141 86.1875 58.25 C91.37136174 57.69458624 94.8737481 58.82521325 99 62 C102.69103043 65.69103043 103.33450246 68.87905367 103.625 73.9375 C103.4186335 78.98409901 102.66425183 82.0874582 99.00390625 85.62890625 C95.95794929 87.71298207 92.75801029 88.73369314 89.26171875 89.859375 C78.00036209 93.79747817 68.27653695 99.32631637 60 108 C59.44183594 108.53882812 58.88367188 109.07765625 58.30859375 109.6328125 C47.32158223 121.05012473 43.65684984 137.03727806 43.7668457 152.34423828 C43.85544444 156.81586841 44.21008406 161.18194171 44.75 165.625 C45.18438374 170.2371332 44.7907537 173.39264702 42.3515625 177.375 C39.31003211 181.03186891 36.22942551 182.6608164 31.53515625 183.375 C25.87467884 183.64738388 22.3311006 182.91861483 18 179 C14.82103996 174.75113852 13.15914569 170.8910155 11.6875 165.8125 C9.49792453 158.75999987 6.40432282 152.96810485 2 147 C1.53980469 146.35675781 1.07960938 145.71351563 0.60546875 145.05078125 C-6.11477954 136.4325954 -15.93344089 130.8293539 -26 127 C-26.79148438 126.6803125 -27.58296875 126.360625 -28.3984375 126.03125 C-39.77329158 122.15590539 -53.28394814 123.2947779 -65 125 C-68.87477413 124.83656489 -71.89033371 123.99918003 -74.8046875 121.375 C-79.16049466 116.37311618 -80.35785225 113.18430789 -80.28125 106.5390625 C-79.75377621 101.77714637 -77.20935838 99.10857852 -73.796875 95.98046875 C-70.57286969 93.69754879 -67.72613227 92.78305613 -63.9375 91.6875 C-48.0500732 86.7037424 -35.60751894 77.12561055 -27.58300781 62.38867188 C-20.42840772 48.35202789 -19.32572433 33.60284749 -21.55859375 18.12890625 C-22.14544453 13.96901712 -21.65548632 10.84395847 -20 7 C-13.99268903 -0.08554627 -8.96271891 -0.96029131 0 0 Z M6 66 C5.46632813 67.07636719 4.93265625 68.15273437 4.3828125 69.26171875 C-0.05986105 78.033177 -4.81452845 85.93396029 -11.03125 93.55859375 C-13.0001737 95.82257122 -13.0001737 95.82257122 -14 98 C-12.92363281 98.46148437 -11.84726563 98.92296875 -10.73828125 99.3984375 C-1.75157172 103.37084604 5.9763964 107.73474613 13.55859375 113.99609375 C15.8172259 116.0010248 15.8172259 116.0010248 18 117 C18.76183594 115.42412109 18.76183594 115.42412109 19.5390625 113.81640625 C23.25798351 106.20164556 27.00252473 98.87313437 32 92 C32.89269546 90.75185128 33.78456599 89.50311231 34.67578125 88.25390625 C35.44277344 87.18011719 36.20976562 86.10632813 37 85 C35.97261719 84.5153125 34.94523437 84.030625 33.88671875 83.53125 C25.23525498 79.37398518 17.55897929 74.95996444 10 69 C8.66884313 67.99710461 7.33626981 66.99607268 6 66 Z " fill="#fff" transform="translate(147,15)"/>
<path d="M0 0 C4.67194635 2.21302722 6.61688026 4.52073306 9 9 C9.81868762 11.37990587 10.58587195 13.77789151 11.3125 16.1875 C16.25147991 31.61712806 26.09840181 43.57649448 40 52 C43.91489091 53.96997711 47.8562614 55.57846745 52 57 C52.70125 57.24621094 53.4025 57.49242187 54.125 57.74609375 C63.95330161 60.52949948 75.61649497 59.48357686 85.625 58.25 C91.04986051 57.73155765 94.69733588 58.60751483 99 62 C102.54711702 65.63579495 103.28578227 68.56629785 103.5 73.5 C103.29969749 78.4207651 102.42917072 81.30010527 99 85 C95.37755765 88.07907599 91.77986166 89.46486255 87.3125 90.875 C76.32105768 94.39389192 68.15046324 99.87833699 60 108 C59.43539062 108.54140625 58.87078125 109.0828125 58.2890625 109.640625 C46.6568987 121.82670136 43.51189526 138.22548445 43.8125 154.390625 C43.93048871 158.18799834 44.29040257 161.91497112 44.75 165.6875 C45.18627759 170.27483055 44.77783926 173.41373183 42.3515625 177.375 C39.31003211 181.03186891 36.22942551 182.6608164 31.53515625 183.375 C25.87467884 183.64738388 22.3311006 182.91861483 18 179 C14.82103996 174.75113852 13.15914569 170.8910155 11.6875 165.8125 C9.49792453 158.75999987 6.40432282 152.96810485 2 147 C1.53980469 146.35675781 1.07960938 145.71351563 0.60546875 145.05078125 C-8.00610643 134.00711855 -22.39000668 126.51621347 -36 124 C-38.74309597 123.81906067 -41.44645888 123.90171713 -44.19140625 124.015625 C-45.72848967 124.05063787 -47.26560068 124.08445632 -48.80273438 124.1171875 C-51.18854243 124.17912462 -53.57292916 124.25040394 -55.95776367 124.34277344 C-71.01738566 124.89360313 -71.01738566 124.89360313 -75.46484375 121.234375 C-79.63549641 116.71634701 -80.44864873 112.46374227 -80.31640625 106.46875 C-79.71253333 101.75705017 -77.18466533 99.08594322 -73.796875 95.98046875 C-70.57286969 93.69754879 -67.72613227 92.78305613 -63.9375 91.6875 C-48.0500732 86.7037424 -35.60751894 77.12561055 -27.58300781 62.38867188 C-20.33013095 48.15921823 -19.40093253 33.26956513 -21.55859375 17.59765625 C-22.0744959 13.39282542 -21.6206777 10.90435991 -20 7 C-13.89994917 -0.03852018 -9.02215333 -0.96665929 0 0 Z M5 66 C4.53851563 67.07636719 4.07703125 68.15273438 3.6015625 69.26171875 C-0.37084604 78.24842828 -4.73474613 85.9763964 -10.99609375 93.55859375 C-13.0010248 95.8172259 -13.0010248 95.8172259 -14 98 C-12.92363281 98.46148437 -11.84726562 98.92296875 -10.73828125 99.3984375 C-1.75157172 103.37084604 5.9763964 107.73474613 13.55859375 113.99609375 C15.8172259 116.0010248 15.8172259 116.0010248 18 117 C18.46148437 115.92363281 18.92296875 114.84726562 19.3984375 113.73828125 C23.37084604 104.75157172 27.73474613 97.0236036 33.99609375 89.44140625 C36.0010248 87.1827741 36.0010248 87.1827741 37 85 C35.97261719 84.5153125 34.94523437 84.030625 33.88671875 83.53125 C24.76030116 79.14628724 15.46105887 74.66568871 8.33203125 67.26953125 C7.06539039 65.77002661 7.06539039 65.77002661 5 66 Z " fill="#fff" transform="translate(394,259)"/>
</svg>
