<svg className='svg-first-btn-2' width="16" height="16" viewBox="0 0 19 19" fill="white" xmlns="http://www.w3.org/2000/svg"><path fill-rule="evenodd" clip-rule="evenodd" d="M13.5711 15.6731C13.6241 15.7455 13.7311 15.7504 13.7805 15.6757C13.9477 15.4231 14.0266 15.1046 13.9748 14.7868L13.5235 12.2095C13.5145 12.158 13.4775 12.1158 13.4274 12.1L10.6175 11.213C10.4879 11.1721 10.3812 11.3198 10.4612 11.4292L13.5711 15.6731Z"></path><path fill-rule="evenodd" clip-rule="evenodd" d="M10.4928 9.37344C10.4121 9.48274 10.5189 9.63107 10.6488 9.59001L15.8135 7.95972C15.8987 7.93282 15.9377 7.83402 15.8833 7.76326C15.6867 7.50713 15.3994 7.33845 15.0704 7.29017L12.4057 6.90769C12.3543 6.9003 12.303 6.92172 12.2723 6.96339L10.4928 9.37344Z"></path><path fill-rule="evenodd" clip-rule="evenodd" d="M8.65612 8.96279C8.73634 9.07238 8.9106 9.01583 8.9106 8.88026V3.51208C8.9106 3.41841 8.81979 3.35148 8.73487 3.3919C8.49462 3.50631 8.28344 3.70124 8.15403 3.94099C8.15262 3.94379 8.15052 3.94729 8.14905 3.9508L6.90154 6.43963C6.87804 6.48649 6.88276 6.54247 6.91376 6.58478L8.65612 8.96279Z"></path><path fill-rule="evenodd" clip-rule="evenodd" d="M8.91019 11.9453C8.91019 11.81 8.73649 11.7533 8.65599 11.8624L5.58578 16.0213C5.52769 16.1 5.56678 16.2118 5.6642 16.2231C5.91352 16.2518 6.16667 16.2054 6.37659 16.0899L8.8341 14.8244C8.88083 14.8003 8.91019 14.7523 8.91019 14.7V11.9453Z"></path><path fill-rule="evenodd" clip-rule="evenodd" d="M7.64304 10.5399C7.77399 10.4986 7.77399 10.3141 7.64304 10.2728L2.60815 8.68319C2.51304 8.65313 2.41858 8.7288 2.4435 8.825C2.49939 9.04067 2.6155 9.24057 2.77874 9.39737L4.82481 11.3528C4.86199 11.3883 4.9157 11.4008 4.96482 11.3852L7.64304 10.5399Z"></path><g opacity="0.4"><path fill-rule="evenodd" clip-rule="evenodd" d="M9.63281 8.89388C9.63281 9.02925 9.80644 9.08593 9.88694 8.97691L11.6361 6.60724C11.6675 6.56486 11.6722 6.50862 11.6486 6.46159L10.3844 3.94437C10.2532 3.69625 10.0484 3.50967 9.80973 3.39716C9.72432 3.35691 9.63281 3.42409 9.63281 3.51814V8.89388Z"></path><path fill-rule="evenodd" clip-rule="evenodd" d="M5.10757 12.0943C5.05751 12.11 5.02045 12.1523 5.01143 12.2038L4.5588 14.7902C4.5077 15.1042 4.58309 15.4075 4.74487 15.6561C4.7941 15.7317 4.90205 15.7277 4.95566 15.6551L8.08021 11.4218C8.16085 11.3125 8.05407 11.1643 7.92424 11.2052L5.10757 12.0943Z"></path><path fill-rule="evenodd" clip-rule="evenodd" d="M9.88729 11.8669C9.807 11.7573 9.63281 11.8139 9.63281 11.9495V14.703C9.63281 14.7553 9.66217 14.8033 9.7089 14.8274L12.1565 16.088C12.3734 16.2024 12.6134 16.2487 12.8522 16.2261C12.9509 16.2168 12.9921 16.104 12.9335 16.0242L9.88729 11.8669Z"></path><path fill-rule="evenodd" clip-rule="evenodd" d="M10.8795 10.273C10.7485 10.3143 10.7485 10.4988 10.8795 10.5401L13.5745 11.391C13.6237 11.4066 13.6775 11.394 13.7147 11.3584L15.76 9.39835C15.9269 9.23909 16.0403 9.04004 16.0957 8.82129C16.1202 8.7246 16.0252 8.64816 15.9297 8.67829L10.8795 10.273Z"></path><path fill-rule="evenodd" clip-rule="evenodd" d="M7.91401 9.60319C8.04363 9.64411 8.15041 9.49641 8.07026 9.38704L6.29222 6.96014C6.26149 6.9182 6.21 6.89661 6.15839 6.90403L3.47223 7.28995C3.13326 7.33562 2.84723 7.51635 2.65556 7.7688C2.60174 7.8397 2.64071 7.93807 2.72579 7.96491L7.91401 9.60319Z"></path></g></svg>
