<?xml version="1.0" encoding="UTF-8"?>
<svg version="1.1" xmlns="http://www.w3.org/2000/svg" width="24" height="24">
<path d="M0 0 C-1.58956284 3.81316478 -4.00760697 6.372784 -6.875 9.3125 C-7.73867187 10.21613281 -8.60234375 11.11976562 -9.4921875 12.05078125 C-12 14 -12 14 -14.1484375 13.9453125 C-17.0154952 12.48154043 -18.89369087 10.39885207 -21 8 C-21 7.34 -21 6.68 -21 6 C-18.0280615 7.12451727 -15.66559313 8.22293791 -13 10 C-12.31292969 9.278125 -11.62585937 8.55625 -10.91796875 7.8125 C-10.01691406 6.884375 -9.11585937 5.95625 -8.1875 5 C-7.29417969 4.071875 -6.40085937 3.14375 -5.48046875 2.1875 C-3 0 -3 0 0 0 Z " fill="#FFFFFF" transform="translate(23,5)"/>
</svg>
