<?xml version="1.0" encoding="UTF-8"?>
<svg version="1.1" xmlns="http://www.w3.org/2000/svg" width="50" height="50">
<path d="M0 0 C0.45890625 0.40992187 0.9178125 0.81984375 1.390625 1.2421875 C2.31101562 2.05042969 2.31101562 2.05042969 3.25 2.875 C3.85328125 3.40867187 4.4565625 3.94234375 5.078125 4.4921875 C7.22227187 6.27800279 7.22227187 6.27800279 11 8 C13.64 5.36 16.28 2.72 19 0 C20.32 0.99 21.64 1.98 23 3 C21.41332422 6.90285767 18.86649519 9.33520982 15.875 12.25 C14.96492188 13.14203125 14.05484375 14.0340625 13.1171875 14.953125 C12.06917969 15.96632813 12.06917969 15.96632813 11 17 C7.09714233 15.41332422 4.66479018 12.86649519 1.75 9.875 C0.85796875 8.96492188 -0.0340625 8.05484375 -0.953125 7.1171875 C-1.96632813 6.06917969 -1.96632813 6.06917969 -3 5 C-1.125 1.125 -1.125 1.125 0 0 Z " fill="#FFFFFF" transform="translate(15,19)"/>
</svg>
